<svg xmlns="http://www.w3.org/2000/svg" viewBox="0 0 64 64" width="64" height="64"><title>mouse animated</title><g class="nc-icon-wrapper" stroke-linecap="round" stroke-linejoin="round" stroke-width="1" transform="translate(0.5 0.5)" fill="#111111" stroke="#111111"><g class="nc-loop_mouse-64"> <path fill="none" stroke="#111111" stroke-miterlimit="10" d="M38,62H26 c-6.6,0-12-5.4-12-12V14c0-6.6,5.4-12,12-12h12c6.6,0,12,5.4,12,12v36C50,56.6,44.6,62,38,62z"/> <path data-color="color-2" fill="none" stroke-miterlimit="10" d="M32,27L32,27c-1.65686,0-3-1.34314-3-3 V14c0-1.65685,1.34314-3,3-3H32c1.65685,0,3,1.34314,3,3V24C35,25.65686,33.65686,27,32,27z" data-cap="butt" transform="translate(0 4.531871999999974)"/> </g></g></svg>