<svg xmlns="http://www.w3.org/2000/svg" width="48" height="48" viewBox="0 0 48 48"><g class="nc-icon-wrapper" stroke-linecap="square" stroke-linejoin="miter" stroke-width="2" fill="#000000" stroke="#000000"><path data-color="color-2" fill="none" stroke-miterlimit="10" d=" M19.583334,28.416666l13.1948338-13.1948347c1.5621605-1.5621605,1.5620766-4.09478,0-5.6568537 c-1.5620728-1.5620747-4.0946941-1.5621605-5.6568546,0c1.5621605-1.5621605,1.5620747-4.0947804,0-5.6568546 c-1.5620728-1.5620742-4.0946922-1.5621605-5.6568527,0c-0.4457397,0.4457395-0.7494888,0.9740846-0.9407673,1.5327265 L7.3223243,32.1923943"/> <line data-color="color-2" fill="none" stroke-miterlimit="10" x1="27.1213131" y1="9.5649776" x2="15.9961977" y2="25.1401405"/> <line data-color="color-2" fill="none" stroke-miterlimit="10" x1="38.4350243" y1="20.8786869" x2="23" y2="32"/> <path data-color="color-2" fill="none" stroke-miterlimit="10" d=" M32.7781677,15.2218313c1.5621605-1.5621605,4.09478-1.5620737,5.6568565,0c1.5620728,1.5620737,1.5621605,4.0946951,0,5.6568556 c1.5621605-1.5621605,4.09478-1.5620747,5.6568527,0c1.5620728,1.5620728,1.5621605,4.0946922,0,5.6568527 c-0.4457397,0.4457397-0.9740829,0.7494888-1.5327263,0.9407673l-26.751545,13.2013702"/> <path fill="none" stroke="#000000" stroke-miterlimit="10" d="M4.4939013,43.5061073 l-0.0000086-0.0000076c-2.3431432-2.3431435-2.3431432-6.1421318,0-8.4852753l2.8284316-2.8284302l8.485281,8.4852829 l-2.8284311,2.8284302C10.6360312,45.8492508,6.8370447,45.8492508,4.4939013,43.5061073z"/></g></svg>