<svg xmlns="http://www.w3.org/2000/svg" width="48" height="48" viewBox="0 0 48 48"><g class="nc-icon-wrapper" stroke-linecap="round" stroke-linejoin="round" stroke-width="2" fill="#111111" stroke="#111111"><path data-cap="butt" data-color="color-2" fill="none" stroke-miterlimit="10" d="M2.5058594,28.6624756 C4.8481445,29.5124512,7.3641357,30,10,30c5.3186035,0,10.291626-2.666748,14-6"/> <path data-cap="butt" data-color="color-2" fill="none" stroke-miterlimit="10" d="M41.8046303,36.912468 c-0.92799-2.3124847-2.2419167-4.512825-3.9991608-6.4774837C34.2597351,26.4707317,28.9567089,24.5418911,24,24"/> <path data-cap="butt" data-color="color-2" fill="none" stroke-miterlimit="10" d="M23.6434135,2.0088744 c-1.2928295,2.1301055-2.2643356,4.5016217-2.781271,7.0862994C19.8190784,14.3104935,21.4587498,19.7099361,24,24"/> <path data-cap="butt" data-color="color-2" fill="none" stroke-miterlimit="10" d="M34.6563187,27.7035637 C30.875,35.375,25.1444454,40.4736061,8.8222227,39.9243011"/> <path data-cap="butt" data-color="color-2" fill="none" stroke-miterlimit="10" d="M14.3557386,29.4186363 C8.5,22.416666,8.7016773,11.909297,10.8925056,6.3296485"/> <path data-cap="butt" data-color="color-2" fill="none" stroke-miterlimit="10" d="M20.5680771,13.3180828 c8.0981655-1.8412237,15.5515823-0.4835835,25.3867493,12.1031513"/> <circle fill="none" stroke="#111111" stroke-miterlimit="10" cx="24" cy="24" r="22"/></g></svg>